<svg xmlns="http://www.w3.org/2000/svg" xmlns:xlink="http://www.w3.org/1999/xlink" width="500" zoomAndPan="magnify" viewBox="0 0 375 374.999991" height="500" preserveAspectRatio="xMidYMid meet" version="1.0"><defs><g/><clipPath id="29af99bcc9"><path d="M 68.101562 20.058594 L 306.582031 20.058594 L 306.582031 243.945312 L 68.101562 243.945312 Z M 68.101562 20.058594 " clip-rule="nonzero"/></clipPath></defs><g clip-path="url(#29af99bcc9)"><path fill="#292621" d="M 282.160156 129.589844 C 279.761719 130.382812 277.910156 132.089844 276.765625 134.328125 C 276.582031 134.691406 277.207031 134.84375 277.375 134.546875 C 278.515625 132.5 280.308594 130.980469 282.421875 129.996094 C 282.734375 129.851562 282.425781 129.5 282.160156 129.589844 Z M 289.292969 131.757812 C 287.632812 131.585938 285.957031 132.039062 284.480469 132.902344 C 284.363281 133.238281 284.300781 133.597656 284.300781 133.96875 C 284.300781 135.507812 285.371094 136.808594 286.8125 137.152344 C 287.179688 136.832031 287.523438 136.460938 287.828125 136.03125 C 288.78125 134.71875 289.070312 133.257812 289.292969 131.757812 Z M 285.296875 138.132812 C 283.867188 137.347656 282.886719 135.847656 282.835938 134.121094 C 281.574219 135.257812 280.59375 136.714844 280.101562 138.269531 C 281.835938 138.90625 283.691406 138.871094 285.296875 138.132812 Z M 291.65625 131.632812 C 292.007812 131.9375 291.398438 132.328125 291.105469 132.207031 C 290.894531 132.125 290.683594 132.050781 290.472656 131.988281 C 290.464844 132.113281 290.449219 132.242188 290.429688 132.371094 C 290.179688 134.238281 289.324219 135.917969 288.109375 137.195312 C 287.597656 137.730469 287.023438 138.195312 286.398438 138.570312 C 284.496094 139.710938 282.164062 140.035156 279.898438 139.050781 C 279.894531 139.070312 279.894531 139.085938 279.886719 139.105469 C 279.832031 139.378906 279.230469 139.398438 279.25 139.09375 C 279.261719 138.980469 279.269531 138.867188 279.289062 138.753906 C 279.316406 138.5 279.371094 138.246094 279.441406 137.984375 C 279.9375 136.125 281.285156 134.148438 283.011719 132.679688 C 284.921875 131.046875 287.300781 130.039062 289.464844 130.523438 C 289.816406 130.597656 290.160156 130.714844 290.5 130.878906 C 290.894531 131.070312 291.285156 131.320312 291.65625 131.632812 Z M 304.574219 127.863281 C 303.273438 127.300781 301.839844 126.984375 300.390625 126.921875 C 300.378906 126.921875 300.367188 126.921875 300.359375 126.921875 C 298.191406 126.828125 296.042969 127.3125 294.21875 128.273438 C 294.082031 128.347656 293.945312 128.425781 293.8125 128.503906 C 293.886719 128.769531 293.957031 129.035156 294.035156 129.292969 C 294.28125 130.171875 294.566406 131 294.886719 131.792969 C 295.347656 131.539062 295.8125 131.300781 296.289062 131.074219 C 296.488281 130.976562 296.691406 130.882812 296.898438 130.792969 C 299.183594 129.761719 301.601562 129 303.953125 128.488281 C 304.15625 128.277344 304.367188 128.070312 304.574219 127.863281 Z M 302.777344 129.710938 C 300.144531 130.554688 297.757812 131.691406 295.4375 133.03125 C 295.984375 134.167969 296.644531 135.226562 297.4375 136.238281 C 299.070312 133.953125 300.855469 131.773438 302.777344 129.710938 Z M 296.46875 137.640625 C 295.460938 136.542969 294.601562 135.269531 293.972656 133.90625 C 293.773438 133.492188 293.601562 133.066406 293.457031 132.640625 C 293.023438 131.425781 292.773438 130.171875 292.75 128.925781 C 291.269531 128.621094 289.648438 128.617188 288.308594 128.507812 C 285.566406 128.289062 282.796875 128.253906 280.074219 128.710938 C 275.496094 129.476562 271.191406 131.617188 267.6875 134.640625 C 261.84375 139.675781 258.710938 146.90625 258.15625 154.421875 C 258.132812 154.792969 258.105469 155.171875 258.097656 155.542969 C 258.019531 157.476562 258.109375 159.425781 258.371094 161.347656 C 258.476562 162.140625 257.027344 162.457031 256.886719 161.660156 C 256.628906 160.242188 256.484375 158.816406 256.441406 157.386719 C 255.78125 157.949219 255.050781 158.453125 254.292969 158.949219 C 251.15625 160.976562 248.226562 163.179688 245.695312 165.957031 C 240.703125 171.433594 238.316406 178.054688 235.820312 184.890625 C 233.179688 192.140625 229.769531 199.074219 226.253906 205.933594 C 225.199219 207.976562 224.1875 210.148438 222.980469 212.1875 C 226.5625 210.121094 229.78125 207.339844 232.316406 204.042969 C 234.429688 201.300781 236.128906 198.175781 237.773438 195.15625 C 238.085938 194.574219 238.398438 194.003906 238.71875 193.429688 C 241.550781 188.304688 244.667969 183.28125 247.96875 178.519531 C 247.976562 178.507812 247.984375 178.503906 247.984375 178.492188 C 247.988281 178.488281 247.988281 178.484375 247.996094 178.476562 C 250.558594 174.78125 253.308594 171.132812 256.164062 167.628906 C 256.417969 167.316406 256.886719 167.265625 257.199219 167.527344 C 257.511719 167.78125 257.5625 168.246094 257.300781 168.5625 C 254.777344 171.65625 252.335938 174.863281 250.035156 178.121094 C 256.007812 177.808594 261.980469 176.171875 267.398438 173.378906 C 275.628906 169.136719 282.882812 162.039062 287.835938 153.390625 C 288.929688 151.484375 289.933594 149.472656 290.90625 147.523438 C 291.792969 145.75 292.703125 143.914062 293.695312 142.144531 C 294.558594 140.605469 295.484375 139.105469 296.46875 137.640625 Z M 222.140625 210.570312 C 223.808594 207.460938 225.394531 204.3125 226.972656 201.160156 C 230.152344 194.78125 232.953125 188.300781 235.375 181.597656 C 237.539062 175.621094 240.121094 170.050781 244.492188 165.355469 C 246.457031 163.246094 248.652344 161.332031 251.066406 159.753906 C 252.761719 158.640625 254.800781 157.683594 256.417969 156.34375 C 256.433594 146.902344 260.832031 137.558594 268.703125 132.070312 C 273.117188 128.984375 278.34375 127.183594 283.742188 127.085938 C 286.574219 127.035156 289.660156 127.230469 292.480469 127.828125 C 292.523438 127.65625 292.632812 127.5 292.796875 127.402344 C 294.566406 126.308594 296.652344 125.640625 298.808594 125.484375 C 296.679688 123.144531 294.070312 121.160156 291.179688 119.699219 C 282.96875 115.542969 273.179688 116.316406 265.628906 121.300781 L 265.625 121.300781 C 265.1875 121.582031 264.765625 121.886719 264.34375 122.195312 C 263.132812 123.109375 261.984375 124.136719 260.925781 125.277344 C 260.804688 125.988281 260.667969 126.703125 260.519531 127.410156 C 260.519531 127.414062 260.515625 127.425781 260.515625 127.429688 C 260.507812 127.464844 260.492188 127.5 260.480469 127.535156 C 260.472656 127.5625 260.460938 127.589844 260.441406 127.617188 C 260.429688 127.636719 260.421875 127.65625 260.40625 127.675781 C 260.363281 127.734375 260.3125 127.792969 260.253906 127.832031 C 260.226562 127.859375 260.195312 127.875 260.167969 127.890625 C 260.15625 127.902344 260.148438 127.90625 260.136719 127.910156 C 260.074219 127.945312 260.007812 127.96875 259.941406 127.980469 C 259.894531 127.988281 259.847656 127.992188 259.796875 127.992188 C 259.757812 127.992188 259.726562 127.988281 259.679688 127.984375 C 259.671875 127.984375 259.65625 127.980469 259.648438 127.980469 C 259.636719 127.980469 259.628906 127.972656 259.621094 127.972656 C 259.585938 127.964844 259.558594 127.957031 259.523438 127.941406 C 259.492188 127.929688 259.460938 127.914062 259.4375 127.894531 C 259.421875 127.890625 259.402344 127.878906 259.386719 127.867188 C 259.089844 127.667969 258.785156 127.480469 258.445312 127.296875 C 254.792969 125.300781 250.027344 124.929688 245.84375 124.738281 C 240.007812 124.46875 234.167969 124.199219 228.332031 123.925781 C 223.015625 123.679688 217.527344 123.421875 212.148438 123.734375 C 211.132812 123.789062 210.042969 123.875 208.832031 123.976562 C 208.828125 123.980469 208.824219 123.980469 208.820312 123.980469 C 208.785156 123.988281 208.753906 123.988281 208.71875 123.988281 C 207.261719 124.121094 205.773438 124.277344 204.335938 124.429688 C 196.609375 125.238281 188.617188 126.070312 181.160156 123.554688 C 176.902344 122.125 173.058594 119.65625 169.484375 117.242188 C 144.234375 100.21875 122.027344 79.324219 103.476562 55.128906 C 103.425781 55.269531 103.394531 55.414062 103.382812 55.554688 C 103.230469 57.097656 104.136719 58.566406 105.164062 60.066406 C 113.667969 72.503906 123.253906 84.363281 132.527344 95.828125 C 140.269531 105.402344 149.046875 116.257812 160.246094 123.070312 C 160.273438 123.078125 160.296875 123.09375 160.328125 123.121094 C 160.359375 123.128906 160.382812 123.144531 160.40625 123.171875 C 160.460938 123.207031 160.503906 123.253906 160.539062 123.3125 C 160.566406 123.335938 160.578125 123.359375 160.585938 123.390625 C 160.609375 123.414062 160.621094 123.441406 160.628906 123.472656 C 160.648438 123.515625 160.664062 123.566406 160.667969 123.613281 C 160.675781 123.65625 160.679688 123.703125 160.679688 123.746094 C 160.679688 123.789062 160.675781 123.839844 160.667969 123.882812 C 160.664062 123.925781 160.652344 123.957031 160.636719 123.996094 C 160.585938 124.128906 160.503906 124.242188 160.398438 124.324219 C 160.367188 124.347656 160.332031 124.375 160.304688 124.390625 C 160.277344 124.402344 160.25 124.417969 160.21875 124.429688 C 160.210938 124.433594 160.199219 124.4375 160.191406 124.4375 C 160.167969 124.449219 160.136719 124.457031 160.109375 124.460938 C 160.082031 124.46875 160.054688 124.472656 160.03125 124.476562 C 160.019531 124.476562 160.007812 124.480469 160.003906 124.480469 C 153.066406 125.699219 146.089844 126.160156 139.28125 126.160156 C 130.15625 126.160156 121.351562 125.332031 113.359375 124.390625 C 113.351562 124.390625 113.34375 124.382812 113.335938 124.390625 C 108.214844 123.785156 103.019531 123.078125 97.984375 122.394531 C 90.5625 121.382812 82.894531 120.335938 75.382812 119.621094 C 73.671875 119.460938 72.121094 119.347656 70.695312 119.675781 C 82.851562 125.457031 96.304688 128.886719 109.722656 129.609375 C 113.917969 129.832031 118.242188 129.808594 122.429688 129.785156 C 132.601562 129.726562 143.125 129.667969 152.835938 133.164062 C 156.699219 134.550781 160.304688 136.460938 163.753906 138.605469 C 168.894531 140.558594 173.71875 143.5 179.109375 144.765625 C 183.867188 145.882812 188.820312 145.28125 193.667969 145.457031 C 198.457031 145.628906 203.203125 146.277344 207.902344 147.230469 C 208.277344 147.304688 208.128906 147.75 207.777344 147.699219 C 202.734375 147.03125 197.652344 146.6875 192.5625 146.613281 C 188.164062 146.550781 183.703125 147.03125 179.355469 146.195312 C 176.464844 145.640625 173.71875 144.65625 171.019531 143.523438 C 172.054688 144.265625 173.082031 145.007812 174.101562 145.753906 L 194.566406 160.664062 C 194.902344 160.90625 195.246094 161.15625 195.597656 161.40625 C 198.683594 159.394531 201.933594 157.640625 205.277344 156.136719 C 207.339844 153.292969 210.308594 151.332031 213.558594 149.953125 C 218.355469 146.628906 224.15625 144.675781 229.90625 144.007812 C 233.15625 143.636719 236.5 143.652344 239.730469 144.21875 C 241.8125 144.585938 243.925781 145.316406 244.707031 147.46875 C 244.851562 147.875 244.121094 148.082031 243.984375 147.710938 C 242.902344 144.800781 238.527344 144.84375 235.957031 144.757812 C 233.199219 144.667969 230.421875 144.875 227.707031 145.390625 C 224.773438 145.945312 222.027344 146.875 219.398438 148.070312 C 219.582031 148.023438 219.757812 147.980469 219.9375 147.941406 C 223.316406 147.171875 226.898438 146.429688 230.371094 146.320312 C 232.769531 146.242188 235.300781 146.621094 236.96875 148.496094 C 237.253906 148.808594 236.6875 149.070312 236.433594 148.90625 C 231.65625 145.90625 224.84375 147.957031 219.734375 149.183594 C 217.480469 149.722656 215.320312 150.449219 213.304688 151.414062 C 212.667969 151.71875 212.042969 152.046875 211.4375 152.40625 C 210.136719 153.164062 208.917969 154.042969 207.78125 155.0625 C 215.113281 152.0625 225.308594 148.257812 232.789062 152.304688 C 233.058594 152.445312 232.714844 152.714844 232.511719 152.640625 C 224.378906 149.625 214.113281 153.519531 206.582031 156.820312 C 206.292969 156.945312 206.003906 157.074219 205.71875 157.210938 C 205.199219 157.4375 204.683594 157.675781 204.175781 157.933594 C 201.570312 159.183594 199.054688 160.589844 196.628906 162.125 C 196.941406 162.347656 197.265625 162.5625 197.59375 162.777344 C 197.636719 162.808594 197.671875 162.839844 197.707031 162.867188 C 197.734375 162.890625 197.765625 162.921875 197.789062 162.949219 C 197.851562 163.023438 197.902344 163.113281 197.929688 163.207031 C 197.9375 163.230469 197.941406 163.253906 197.945312 163.28125 C 197.96875 163.359375 197.96875 163.441406 197.953125 163.53125 C 197.953125 163.535156 197.953125 163.542969 197.953125 163.550781 C 197.875 164 197.832031 164.46875 197.808594 164.941406 C 200.984375 162.71875 204.527344 160.976562 208.050781 159.503906 C 214.179688 156.941406 221.648438 153.441406 228.277344 156.035156 C 228.675781 156.1875 228.328125 156.621094 228 156.507812 C 221.386719 154.273438 213.535156 158.238281 207.53125 160.898438 C 204.042969 162.449219 200.773438 164.253906 197.800781 166.472656 C 197.800781 166.476562 197.800781 166.488281 197.800781 166.492188 C 197.808594 167.34375 198.050781 168.257812 198.488281 168.277344 C 198.535156 168.28125 198.59375 168.277344 198.652344 168.273438 C 198.9375 168.253906 199.414062 168.222656 199.800781 168.578125 C 199.941406 168.710938 200.136719 168.953125 200.179688 169.351562 C 208.753906 164 218.636719 159.960938 228.398438 162.882812 C 228.835938 163.015625 228.523438 163.515625 228.164062 163.464844 C 221.265625 162.5 214.683594 163.539062 208.308594 166.335938 C 205.316406 167.644531 202.488281 169.253906 199.726562 170.976562 C 199.707031 171.023438 199.6875 171.066406 199.667969 171.113281 C 199.300781 171.917969 198.957031 172.675781 199.1875 173.296875 C 199.242188 173.429688 199.320312 173.578125 199.410156 173.738281 C 199.539062 173.972656 199.699219 174.253906 199.78125 174.578125 C 206.371094 173.804688 213.113281 173.976562 219.472656 174.917969 C 219.972656 174.992188 219.78125 175.570312 219.335938 175.53125 C 212.554688 174.902344 206.007812 175.144531 199.503906 176.039062 C 199.246094 176.371094 198.898438 176.585938 198.621094 176.757812 L 198.460938 176.855469 C 197.191406 177.667969 196.476562 179.316406 196.742188 180.804688 C 197.761719 180.761719 198.777344 180.769531 199.78125 180.8125 C 204.039062 181.007812 208.234375 181.894531 212.28125 183.183594 C 215.097656 184.085938 217.621094 185.050781 219.246094 187.640625 C 219.410156 187.890625 218.878906 188.074219 218.726562 187.867188 C 216.613281 184.957031 212.441406 184.140625 209.136719 183.324219 C 205.875 182.519531 202.523438 181.972656 199.164062 181.882812 C 197.972656 181.855469 196.796875 181.882812 195.644531 181.980469 C 194.988281 182.191406 194.3125 182.277344 193.652344 182.359375 C 192.628906 182.488281 191.65625 182.601562 191.027344 183.199219 C 190.644531 183.5625 190.464844 184.144531 190.542969 184.765625 C 190.617188 185.386719 190.941406 185.910156 191.402344 186.164062 C 191.460938 186.199219 191.511719 186.238281 191.5625 186.289062 C 192.507812 186.335938 193.453125 186.417969 194.390625 186.53125 C 194.726562 186.542969 195.054688 186.5625 195.382812 186.582031 C 195.53125 186.59375 195.660156 186.640625 195.773438 186.722656 C 195.78125 186.722656 195.78125 186.726562 195.78125 186.726562 C 202.144531 187.730469 208.269531 190.238281 213.570312 194.046875 C 214.167969 194.472656 213.367188 195.179688 212.863281 194.835938 C 207.640625 191.246094 201.761719 188.957031 195.648438 187.980469 C 195.539062 188.03125 195.421875 188.0625 195.292969 188.054688 C 193.910156 187.964844 192.488281 187.941406 191.066406 187.976562 C 186.585938 188.078125 182.148438 188.769531 177.882812 190.035156 C 175.800781 190.652344 173.148438 191.578125 171.074219 193.277344 C 170.347656 193.867188 169.691406 194.554688 169.128906 195.308594 C 172.089844 194.78125 175.078125 194.40625 178.0625 194.164062 C 183.175781 193.753906 188.339844 193.761719 193.453125 194.238281 C 196.992188 194.570312 201.582031 194.695312 204.277344 197.339844 C 204.519531 197.578125 204.078125 197.863281 203.851562 197.753906 C 199.703125 195.734375 195.214844 195.378906 190.660156 195.109375 C 186.039062 194.84375 181.386719 194.925781 176.78125 195.371094 C 173.90625 195.652344 171.066406 196.082031 168.261719 196.640625 C 168.15625 196.828125 168.054688 197.019531 167.964844 197.210938 C 167.957031 197.214844 167.957031 197.226562 167.953125 197.230469 C 167.917969 197.296875 167.878906 197.359375 167.835938 197.40625 C 167.789062 197.460938 167.730469 197.503906 167.679688 197.539062 C 167.644531 197.558594 167.605469 197.578125 167.566406 197.59375 C 163.347656 199.304688 159.5625 201.976562 156.59375 205.34375 C 159.667969 204.445312 162.773438 203.660156 165.90625 202.972656 C 176.011719 200.75 186.527344 199.5 196.878906 199.894531 C 197.332031 199.90625 197.253906 200.507812 196.84375 200.519531 C 186.792969 200.921875 176.878906 201.78125 167.019531 203.847656 C 163.117188 204.664062 159.261719 205.644531 155.4375 206.773438 C 155.175781 207.160156 154.933594 207.578125 154.773438 208.015625 C 154.71875 208.164062 154.617188 208.296875 154.46875 208.382812 C 150.09375 211.066406 146.285156 214.671875 143.449219 218.816406 C 142.578125 220.085938 141.363281 222.023438 140.871094 224.183594 C 140.726562 224.84375 140.65625 225.511719 140.660156 226.167969 C 147.78125 221.105469 155.308594 216.628906 163.316406 213.148438 C 170.539062 210.007812 178.117188 207.941406 185.746094 206.074219 C 192.636719 204.382812 200.800781 202.597656 207.507812 205.882812 C 207.890625 206.066406 207.40625 206.445312 207.132812 206.363281 C 199.144531 203.945312 191.621094 205.609375 183.753906 207.648438 C 176.308594 209.585938 168.992188 211.800781 162.011719 215.070312 C 153.453125 219.070312 145.578125 224.222656 138.0625 229.890625 C 137.144531 230.964844 136.367188 232.054688 135.707031 233.183594 C 134.851562 234.636719 134.457031 235.777344 134.421875 236.867188 C 134.367188 238.585938 135.207031 240.289062 137.066406 242.1875 C 140.21875 239.265625 143.867188 236.8125 147.050781 234.785156 C 154.027344 230.328125 161.363281 226.226562 168.859375 222.582031 C 179.28125 215.777344 191.660156 211.089844 203.613281 209.863281 C 203.925781 209.832031 204.066406 210.253906 203.734375 210.328125 C 195.433594 212.175781 187.375 214.375 179.652344 218.011719 C 176.546875 219.472656 173.5625 221.121094 170.671875 222.90625 C 170.671875 222.945312 170.664062 222.980469 170.65625 223.019531 C 170.644531 223.082031 170.625 223.144531 170.589844 223.203125 C 170.582031 223.242188 170.5625 223.269531 170.539062 223.304688 C 170.507812 223.347656 170.472656 223.386719 170.433594 223.421875 L 170.429688 223.425781 C 169.320312 224.449219 168.316406 225.496094 167.433594 226.558594 C 164.226562 230.410156 162.074219 235.035156 161.265625 239.75 C 175.535156 226.851562 190.511719 219.160156 205.832031 216.875 C 206.773438 216.730469 207.714844 216.609375 208.660156 216.492188 C 210.5625 216.25 212.53125 216 214.417969 215.574219 C 216.464844 215.109375 218.480469 214.417969 220.421875 213.519531 C 221.042969 212.574219 221.601562 211.574219 222.140625 210.570312 Z M 116.1875 123.234375 C 128.800781 124.636719 143.238281 125.574219 157.574219 123.390625 C 150.734375 120.15625 139.816406 117.535156 124.210938 120.878906 C 121.144531 121.53125 118.496094 122.304688 116.1875 123.234375 Z M 208.773438 120.269531 C 217.4375 114.554688 229.171875 112.453125 238.972656 115.589844 C 239.371094 115.71875 239.085938 116.199219 238.753906 116.132812 C 228.085938 114.261719 218.113281 115.800781 209.046875 121.207031 C 209.164062 121.617188 209.257812 122.035156 209.335938 122.457031 C 210.3125 122.375 211.214844 122.308594 212.066406 122.261719 C 217.515625 121.949219 223.046875 122.207031 228.402344 122.453125 C 234.238281 122.726562 240.078125 122.996094 245.910156 123.265625 C 250.257812 123.464844 255.222656 123.859375 259.152344 126.003906 C 259.195312 126.027344 259.238281 126.054688 259.28125 126.074219 C 259.367188 125.660156 259.441406 125.242188 259.511719 124.820312 C 259.511719 124.816406 259.511719 124.816406 259.511719 124.8125 C 259.511719 124.804688 259.511719 124.796875 259.519531 124.792969 C 259.777344 123.289062 259.996094 121.785156 260.160156 120.273438 C 254.144531 116.121094 251.863281 107.410156 249.824219 100.5625 C 247.984375 94.363281 246.28125 88.097656 244.285156 81.945312 C 243.03125 78.085938 241.203125 74.890625 238.847656 71.964844 C 236.089844 70.476562 233.230469 69.113281 230.453125 67.789062 C 226.871094 66.082031 223.175781 64.320312 219.683594 62.289062 C 213.839844 58.890625 208.460938 54.691406 203.261719 50.625 C 199.828125 47.949219 196.28125 45.171875 193.785156 41.425781 C 191.925781 38.632812 190.773438 35.457031 189.660156 32.386719 C 189.617188 32.269531 189.578125 32.148438 189.53125 32.03125 C 189.335938 34.152344 189.316406 36.097656 189.46875 37.925781 C 189.578125 39.238281 189.777344 40.507812 190.066406 41.71875 C 193.074219 45.535156 196.273438 49.171875 199.921875 52.484375 C 206.167969 58.164062 213.191406 62.550781 220.640625 66.453125 C 220.964844 66.625 220.550781 66.980469 220.300781 66.875 C 212.65625 63.871094 205.617188 59.167969 199.457031 53.769531 C 196.09375 50.820312 192.839844 47.542969 189.976562 43.96875 C 189.964844 43.976562 189.960938 43.976562 189.949219 43.980469 C 189.945312 43.980469 189.941406 43.984375 189.933594 43.984375 C 189.90625 43.996094 189.878906 44 189.847656 44.003906 C 189.8125 44.007812 189.773438 44.015625 189.734375 44.015625 C 189.679688 44.015625 189.621094 44.007812 189.566406 43.996094 C 189.539062 43.988281 189.511719 43.980469 189.484375 43.96875 C 189.449219 43.957031 189.414062 43.941406 189.382812 43.921875 C 189.355469 43.910156 189.328125 43.898438 189.304688 43.871094 C 189.285156 43.863281 189.269531 43.847656 189.25 43.832031 C 189.238281 43.824219 189.222656 43.8125 189.214844 43.796875 C 186.175781 41.117188 183.3125 38.171875 180.707031 35.039062 C 179.570312 33.675781 178.460938 32.25 177.386719 30.871094 C 175.195312 28.054688 172.9375 25.148438 170.339844 22.652344 C 170.148438 22.472656 169.949219 22.285156 169.726562 22.105469 C 169.460938 25.945312 169.566406 30.175781 171.425781 33.742188 C 172.734375 36.261719 174.828125 38.320312 176.851562 40.3125 L 179.636719 43.050781 C 179.910156 43.320312 180.1875 43.585938 180.460938 43.859375 C 180.613281 43.8125 180.789062 43.828125 180.902344 43.933594 C 186.308594 48.855469 191.617188 53.820312 197.429688 58.273438 C 203.398438 62.847656 209.753906 66.875 216.1875 70.761719 C 216.492188 70.941406 216.105469 71.296875 215.855469 71.175781 C 204.773438 65.792969 193.867188 58.316406 184.996094 49.433594 C 184.996094 49.433594 184.996094 49.433594 184.992188 49.4375 C 184.988281 49.445312 184.980469 49.445312 184.976562 49.449219 C 184.957031 49.46875 184.933594 49.488281 184.910156 49.496094 C 184.835938 49.546875 184.75 49.582031 184.664062 49.597656 C 184.621094 49.605469 184.570312 49.609375 184.523438 49.609375 C 184.476562 49.609375 184.429688 49.605469 184.382812 49.597656 C 184.339844 49.59375 184.300781 49.582031 184.257812 49.5625 C 184.242188 49.558594 184.226562 49.546875 184.214844 49.542969 C 179.242188 47.222656 173.539062 44.320312 168.515625 40.253906 C 168.515625 40.316406 168.523438 40.386719 168.527344 40.449219 C 168.640625 41.625 169.375 42.707031 170.183594 43.796875 C 172.003906 46.277344 173.996094 48.726562 176.101562 51.09375 C 177.816406 53.019531 179.613281 54.875 181.421875 56.617188 C 191.289062 62.902344 201.066406 69.097656 211.609375 74.332031 C 212.039062 74.546875 211.511719 75.082031 211.15625 74.925781 C 200.863281 70.339844 190.441406 64.886719 181.304688 58.054688 C 181.285156 58.0625 181.261719 58.066406 181.242188 58.070312 C 181.203125 58.078125 181.164062 58.082031 181.125 58.082031 C 181.054688 58.082031 180.984375 58.070312 180.917969 58.046875 C 180.898438 58.046875 180.882812 58.042969 180.863281 58.035156 C 180.855469 58.027344 180.839844 58.023438 180.828125 58.019531 C 178.753906 57.234375 176.6875 56.441406 174.617188 55.648438 C 174.617188 56.472656 174.789062 57.335938 175.132812 58.15625 C 175.898438 59.988281 177.359375 61.519531 178.6875 62.78125 C 182.085938 66.007812 185.914062 68.746094 190.078125 70.921875 C 192.859375 72.320312 195.675781 73.617188 198.703125 74.640625 C 203.753906 76.347656 208.949219 77.59375 214.101562 78.96875 C 214.421875 79.054688 214.183594 79.441406 213.917969 79.390625 C 208.355469 78.355469 202.804688 77.15625 197.4375 75.328125 C 194.984375 74.488281 192.425781 73.550781 190.019531 72.363281 C 190.011719 72.363281 190.011719 72.363281 190.011719 72.363281 L 190.007812 72.363281 C 189.964844 72.375 189.914062 72.378906 189.871094 72.378906 C 189.839844 72.378906 189.808594 72.378906 189.777344 72.375 C 186.117188 71.980469 182.4375 71.394531 178.828125 70.617188 C 178.882812 71.023438 179 71.453125 179.175781 71.828125 C 182.394531 78.722656 189.371094 83.582031 196.949219 84.21875 C 198.710938 84.363281 200.570312 84.304688 202.371094 84.242188 C 202.679688 84.234375 202.992188 84.222656 203.304688 84.21875 C 205.828125 83.820312 208.382812 83.625 210.921875 83.523438 C 214.15625 83.394531 218.183594 82.925781 221.222656 84.269531 C 221.421875 84.355469 221.335938 84.617188 221.128906 84.609375 C 216 84.414062 210.957031 84.695312 205.886719 85.09375 C 205.867188 85.175781 205.832031 85.253906 205.78125 85.320312 C 205.757812 85.363281 205.730469 85.402344 205.699219 85.429688 C 205.664062 85.464844 205.625 85.496094 205.585938 85.523438 C 205.5625 85.542969 205.539062 85.558594 205.507812 85.574219 C 202.953125 86.867188 200.644531 88.703125 198.832031 90.882812 C 198.832031 90.882812 198.828125 90.882812 198.832031 90.890625 C 198.894531 91.53125 199.375 92.214844 200.015625 92.546875 C 200.824219 92.964844 201.894531 93.039062 203.390625 92.78125 C 203.6875 92.730469 203.992188 92.667969 204.300781 92.605469 C 205.308594 92.40625 206.34375 92.195312 207.429688 92.253906 C 208.050781 92.289062 208.523438 92.414062 208.917969 92.667969 C 209.445312 93.007812 209.800781 93.558594 209.945312 94.238281 C 215.398438 89.113281 222.3125 85.554688 229.648438 84.09375 C 229.984375 84.023438 230.128906 84.5 229.78125 84.585938 C 222.261719 86.457031 215.621094 90.050781 210.027344 95.214844 C 210.019531 95.453125 209.996094 95.695312 209.945312 95.945312 C 209.902344 96.191406 209.84375 96.433594 209.785156 96.671875 C 209.632812 97.292969 209.492188 97.886719 209.59375 98.402344 C 209.640625 98.652344 209.753906 98.914062 209.871094 99.195312 C 210.023438 99.546875 210.195312 99.945312 210.265625 100.390625 C 210.320312 100.726562 210.308594 101.0625 210.269531 101.382812 C 212.472656 99.605469 214.921875 98.125 217.417969 96.828125 C 222.699219 94.09375 229.0625 90.648438 235.140625 92.335938 C 235.429688 92.421875 235.207031 92.757812 234.972656 92.71875 C 228.941406 91.722656 222.480469 95.15625 217.28125 97.917969 C 214.59375 99.34375 212.09375 100.984375 209.871094 102.945312 C 209.707031 103.503906 209.53125 104.082031 209.335938 104.667969 C 216.269531 100.679688 224.09375 98.300781 232.09375 97.589844 C 232.507812 97.554688 232.550781 98.066406 232.144531 98.113281 C 223.835938 99.066406 216.019531 101.785156 208.902344 105.917969 C 208.613281 106.714844 208.273438 107.507812 207.871094 108.265625 C 216.367188 104.691406 225.738281 103.121094 234.875 103.914062 C 235.378906 103.957031 235.167969 104.527344 234.738281 104.515625 C 224.914062 104.28125 215.476562 106.164062 206.769531 110.042969 C 206.695312 110.148438 206.621094 110.246094 206.550781 110.347656 C 206.085938 110.96875 205.644531 111.558594 205.488281 112.207031 C 205.144531 113.574219 206.039062 115.011719 206.894531 116.402344 C 215.195312 110.269531 225.863281 106.800781 236.113281 107.605469 C 236.578125 107.640625 236.515625 108.25 236.082031 108.261719 C 225.570312 108.472656 215.867188 111.296875 207.40625 117.238281 C 207.964844 118.183594 208.425781 119.210938 208.773438 120.269531 Z M 241.871094 73.683594 C 242.796875 74.945312 243.609375 76.296875 244.269531 77.769531 C 246.554688 82.851562 247.839844 88.4375 249.429688 93.761719 C 251.15625 99.566406 252.507812 105.707031 254.988281 111.25 C 256.25 114.066406 258.011719 116.71875 260.332031 118.636719 C 260.925781 112.375 260.765625 106.085938 259.851562 99.867188 C 259.121094 94.9375 258.042969 91.179688 256.453125 88.042969 C 253.730469 82.644531 248.949219 77.9375 241.871094 73.683594 Z M 306.582031 127.652344 C 306.582031 127.691406 306.578125 127.734375 306.570312 127.773438 C 306.566406 127.792969 306.566406 127.808594 306.558594 127.828125 C 306.554688 127.859375 306.542969 127.886719 306.53125 127.914062 C 306.523438 127.941406 306.511719 127.964844 306.496094 127.984375 C 306.46875 128.050781 306.429688 128.105469 306.371094 128.160156 C 306.371094 128.167969 306.359375 128.175781 306.355469 128.179688 C 303.410156 131 300.757812 134.085938 298.429688 137.390625 C 298.125 137.820312 297.824219 138.253906 297.535156 138.691406 C 296.628906 140.042969 295.773438 141.433594 294.980469 142.859375 C 294.007812 144.601562 293.097656 146.421875 292.21875 148.183594 C 291.238281 150.148438 290.226562 152.179688 289.113281 154.125 C 284.023438 163.007812 276.546875 170.3125 268.074219 174.683594 C 262.128906 177.757812 255.53125 179.472656 248.980469 179.636719 C 245.78125 184.28125 242.765625 189.15625 240.003906 194.140625 C 239.6875 194.707031 239.375 195.28125 239.066406 195.859375 C 237.390625 198.925781 235.664062 202.105469 233.480469 204.941406 C 230.269531 209.105469 226.023438 212.492188 221.3125 214.726562 C 220.429688 215.148438 219.527344 215.523438 218.617188 215.863281 C 217.34375 216.328125 216.050781 216.710938 214.742188 217.003906 C 212.785156 217.449219 210.785156 217.703125 208.847656 217.953125 C 207.910156 218.070312 206.980469 218.1875 206.046875 218.324219 C 190.5 220.644531 175.265625 228.679688 160.769531 242.195312 C 160.691406 242.269531 160.597656 242.324219 160.5 242.355469 C 160.425781 242.382812 160.347656 242.394531 160.269531 242.394531 C 160.242188 242.394531 160.207031 242.394531 160.175781 242.382812 C 160.148438 242.382812 160.117188 242.378906 160.085938 242.367188 C 160.066406 242.363281 160.039062 242.355469 160.015625 242.34375 C 160 242.339844 159.980469 242.335938 159.964844 242.324219 C 159.9375 242.316406 159.910156 242.300781 159.886719 242.28125 C 159.828125 242.253906 159.777344 242.207031 159.730469 242.15625 C 159.726562 242.148438 159.714844 242.144531 159.710938 242.132812 C 159.667969 242.085938 159.628906 242.027344 159.601562 241.964844 C 159.578125 241.917969 159.558594 241.859375 159.550781 241.800781 C 159.539062 241.761719 159.535156 241.71875 159.535156 241.671875 C 159.535156 241.617188 159.539062 241.5625 159.550781 241.511719 C 160.070312 235.972656 162.378906 230.457031 166.066406 225.902344 C 166.148438 225.804688 166.226562 225.710938 166.304688 225.613281 C 166.363281 225.546875 166.421875 225.472656 166.484375 225.402344 C 164.839844 226.234375 163.207031 227.085938 161.589844 227.953125 C 156.898438 230.480469 152.296875 233.183594 147.84375 236.019531 C 144.550781 238.121094 140.757812 240.671875 137.589844 243.710938 C 137.519531 243.785156 137.433594 243.847656 137.34375 243.882812 C 137.308594 243.898438 137.277344 243.910156 137.242188 243.914062 C 137.183594 243.933594 137.121094 243.945312 137.058594 243.945312 C 136.96875 243.945312 136.875 243.925781 136.792969 243.894531 C 136.761719 243.882812 136.734375 243.867188 136.707031 243.855469 C 136.652344 243.824219 136.601562 243.785156 136.550781 243.742188 C 136.542969 243.734375 136.539062 243.726562 136.527344 243.71875 C 134.9375 242.203125 132.851562 239.847656 132.953125 236.816406 C 133.003906 235.308594 133.589844 233.953125 134.183594 232.878906 L 134.183594 232.875 C 134.273438 232.726562 134.355469 232.578125 134.4375 232.4375 C 135.164062 231.195312 136.023438 230 137.039062 228.828125 C 137.695312 228.066406 138.414062 227.320312 139.203125 226.570312 C 139.160156 225.675781 139.238281 224.765625 139.441406 223.863281 C 139.980469 221.453125 141.292969 219.355469 142.234375 217.984375 C 145.070312 213.84375 148.84375 210.214844 153.167969 207.464844 C 153.277344 207.394531 153.386719 207.324219 153.5 207.253906 C 153.667969 206.84375 153.890625 206.449219 154.128906 206.09375 C 154.46875 205.566406 154.847656 205.101562 155.183594 204.710938 C 157.6875 201.792969 160.765625 199.347656 164.203125 197.542969 C 165.035156 197.097656 165.890625 196.695312 166.761719 196.335938 C 166.871094 196.117188 166.988281 195.902344 167.117188 195.6875 C 167.902344 194.335938 168.933594 193.121094 170.140625 192.140625 C 172.421875 190.273438 175.25 189.285156 177.460938 188.625 C 178.171875 188.410156 178.894531 188.214844 179.613281 188.03125 C 182.910156 187.214844 186.292969 186.714844 189.699219 186.550781 C 189.621094 186.453125 189.550781 186.347656 189.496094 186.234375 C 189.285156 185.847656 189.140625 185.410156 189.082031 184.949219 C 189.007812 184.332031 189.085938 183.722656 189.304688 183.183594 C 189.46875 182.78125 189.707031 182.421875 190.019531 182.128906 C 190.273438 181.890625 190.542969 181.699219 190.832031 181.554688 C 191.648438 181.121094 192.574219 181.007812 193.472656 180.898438 C 194.097656 180.820312 194.699219 180.746094 195.230469 180.570312 C 195.113281 179.078125 195.652344 177.558594 196.667969 176.460938 C 196.960938 176.140625 197.296875 175.855469 197.667969 175.621094 L 197.839844 175.507812 C 198.058594 175.375 198.335938 175.203125 198.363281 175.078125 C 198.382812 175.011719 198.347656 174.898438 198.289062 174.769531 C 198.242188 174.667969 198.175781 174.550781 198.121094 174.449219 C 198.015625 174.253906 197.898438 174.046875 197.808594 173.808594 C 197.613281 173.28125 197.605469 172.765625 197.699219 172.265625 C 197.804688 171.667969 198.066406 171.09375 198.300781 170.550781 C 198.3125 170.539062 198.320312 170.519531 198.324219 170.503906 C 198.445312 170.238281 198.558594 169.988281 198.652344 169.742188 C 198.582031 169.75 198.507812 169.753906 198.433594 169.75 C 197.398438 169.707031 196.675781 168.886719 196.429688 167.546875 C 196.363281 167.226562 196.335938 166.878906 196.328125 166.503906 C 196.324219 166.355469 196.324219 166.199219 196.324219 166.039062 C 196.320312 165.292969 196.335938 164.523438 196.433594 163.777344 C 196.046875 163.515625 195.660156 163.25 195.292969 162.988281 C 194.953125 162.75 194.617188 162.507812 194.289062 162.273438 C 194.09375 162.132812 193.898438 161.988281 193.707031 161.851562 L 173.238281 146.941406 C 170.140625 144.679688 166.984375 142.390625 163.703125 140.3125 C 161.8125 139.109375 159.886719 137.980469 157.902344 136.976562 C 156.097656 136.058594 154.246094 135.234375 152.335938 134.546875 C 142.867188 131.136719 132.484375 131.195312 122.433594 131.257812 C 118.234375 131.28125 113.882812 131.304688 109.640625 131.082031 C 95.480469 130.320312 81.28125 126.582031 68.5625 120.269531 C 68.542969 120.257812 68.523438 120.253906 68.507812 120.246094 C 68.472656 120.230469 68.445312 120.210938 68.417969 120.191406 C 68.394531 120.175781 68.371094 120.15625 68.347656 120.136719 C 68.292969 120.089844 68.242188 120.03125 68.207031 119.96875 C 68.199219 119.960938 68.195312 119.949219 68.191406 119.941406 C 68.179688 119.921875 68.171875 119.902344 68.164062 119.882812 C 68.148438 119.851562 68.140625 119.820312 68.136719 119.792969 C 68.085938 119.644531 68.09375 119.484375 68.144531 119.34375 C 68.15625 119.3125 68.164062 119.285156 68.179688 119.257812 C 68.195312 119.230469 68.207031 119.199219 68.234375 119.171875 C 68.25 119.144531 68.269531 119.121094 68.289062 119.097656 C 68.3125 119.066406 68.339844 119.042969 68.371094 119.019531 C 68.394531 118.996094 68.425781 118.976562 68.453125 118.960938 C 68.464844 118.949219 68.472656 118.945312 68.484375 118.941406 C 68.867188 118.734375 69.25 118.566406 69.621094 118.445312 C 71.484375 117.832031 73.398438 117.953125 75.519531 118.160156 C 83.0625 118.875 90.75 119.921875 98.179688 120.9375 C 103.144531 121.609375 108.273438 122.308594 113.316406 122.902344 C 116.210938 121.472656 119.683594 120.335938 123.90625 119.433594 C 131.917969 117.722656 142.960938 116.703125 153.523438 120.1875 C 144.886719 113.457031 137.78125 104.671875 131.378906 96.75 C 122.09375 85.265625 112.488281 73.378906 103.949219 60.902344 C 102.8125 59.234375 101.714844 57.441406 101.917969 55.414062 C 101.988281 54.703125 102.300781 53.980469 102.808594 53.386719 C 102.816406 53.375 102.828125 53.359375 102.839844 53.34375 C 102.875 53.300781 102.917969 53.265625 102.960938 53.234375 C 102.996094 53.203125 103.042969 53.175781 103.085938 53.15625 C 103.121094 53.140625 103.15625 53.128906 103.1875 53.121094 C 103.214844 53.113281 103.238281 53.105469 103.269531 53.105469 C 103.3125 53.09375 103.351562 53.089844 103.394531 53.089844 C 103.449219 53.089844 103.503906 53.09375 103.558594 53.109375 C 103.605469 53.117188 103.65625 53.132812 103.699219 53.15625 C 103.730469 53.167969 103.765625 53.1875 103.792969 53.207031 C 103.820312 53.226562 103.851562 53.246094 103.878906 53.269531 C 103.921875 53.304688 103.953125 53.347656 103.984375 53.386719 C 122.582031 77.8125 144.898438 98.886719 170.304688 116.027344 C 173.796875 118.375 177.542969 120.789062 181.628906 122.164062 C 188.78125 124.574219 196.613281 123.757812 204.179688 122.960938 C 204.574219 122.921875 204.964844 122.878906 205.363281 122.839844 C 205.808594 122.796875 206.257812 122.75 206.703125 122.707031 C 207.09375 122.667969 207.480469 122.628906 207.859375 122.59375 C 207.828125 122.402344 207.789062 122.210938 207.746094 122.019531 C 207.675781 121.726562 207.597656 121.429688 207.507812 121.136719 C 207.191406 120.074219 206.753906 119.050781 206.210938 118.105469 C 206.179688 118.050781 206.152344 118 206.121094 117.949219 C 205.992188 117.734375 205.863281 117.523438 205.722656 117.304688 C 205.699219 117.269531 205.679688 117.226562 205.65625 117.195312 C 204.679688 115.613281 203.570312 113.828125 204.058594 111.851562 C 204.117188 111.628906 204.1875 111.410156 204.277344 111.210938 C 204.550781 110.5625 204.964844 110.007812 205.367188 109.46875 C 205.394531 109.429688 205.425781 109.386719 205.453125 109.347656 C 205.554688 109.214844 205.652344 109.085938 205.746094 108.949219 C 206.125 108.40625 206.457031 107.832031 206.75 107.234375 C 206.96875 106.785156 207.167969 106.332031 207.351562 105.863281 C 207.445312 105.636719 207.53125 105.410156 207.605469 105.183594 C 207.851562 104.511719 208.066406 103.824219 208.273438 103.140625 C 208.371094 102.835938 208.460938 102.53125 208.550781 102.230469 C 208.742188 101.601562 208.886719 101.085938 208.8125 100.613281 C 208.769531 100.355469 208.652344 100.070312 208.523438 99.773438 C 208.386719 99.453125 208.230469 99.089844 208.148438 98.6875 C 208.035156 98.105469 208.09375 97.539062 208.195312 97.003906 C 208.242188 96.769531 208.296875 96.546875 208.351562 96.324219 C 208.40625 96.101562 208.460938 95.890625 208.503906 95.671875 L 208.503906 95.667969 C 208.621094 95.050781 208.59375 94.210938 208.121094 93.90625 C 207.953125 93.804688 207.707031 93.738281 207.351562 93.726562 C 206.457031 93.675781 205.546875 93.859375 204.589844 94.054688 C 204.273438 94.113281 203.953125 94.175781 203.640625 94.234375 C 202.488281 94.429688 200.796875 94.605469 199.339844 93.851562 C 198.105469 93.214844 197.300781 91.890625 197.363281 90.621094 C 197.363281 90.605469 197.363281 90.585938 197.363281 90.570312 C 197.363281 90.554688 197.367188 90.542969 197.367188 90.527344 C 197.375 90.507812 197.378906 90.480469 197.382812 90.457031 C 197.382812 90.4375 197.386719 90.425781 197.394531 90.410156 C 197.402344 90.382812 197.414062 90.359375 197.421875 90.335938 C 197.433594 90.304688 197.445312 90.28125 197.460938 90.257812 C 197.480469 90.222656 197.5 90.191406 197.519531 90.167969 C 197.519531 90.164062 197.527344 90.164062 197.527344 90.160156 C 198.898438 88.460938 200.546875 86.957031 202.371094 85.714844 C 201.402344 85.746094 200.417969 85.777344 199.433594 85.777344 C 198.558594 85.777344 197.6875 85.753906 196.828125 85.679688 C 188.734375 85.003906 181.28125 79.808594 177.84375 72.445312 C 177.425781 71.539062 177.246094 70.492188 177.351562 69.625 C 177.351562 69.621094 177.351562 69.613281 177.351562 69.609375 C 177.359375 69.582031 177.359375 69.5625 177.367188 69.542969 C 177.371094 69.5 177.386719 69.460938 177.40625 69.421875 C 177.417969 69.390625 177.429688 69.363281 177.445312 69.335938 C 177.460938 69.308594 177.480469 69.285156 177.5 69.257812 C 177.582031 69.144531 177.691406 69.0625 177.816406 69.019531 C 177.859375 69.003906 177.902344 68.992188 177.945312 68.984375 C 177.992188 68.976562 178.035156 68.96875 178.078125 68.96875 C 178.105469 68.96875 178.132812 68.96875 178.164062 68.976562 C 178.167969 68.976562 178.175781 68.976562 178.183594 68.976562 C 178.207031 68.980469 178.226562 68.980469 178.246094 68.992188 C 178.269531 68.992188 178.296875 69 178.3125 69.003906 C 180.941406 69.589844 183.609375 70.074219 186.285156 70.457031 C 183.191406 68.5625 180.304688 66.347656 177.675781 63.851562 C 176.234375 62.484375 174.644531 60.808594 173.777344 58.722656 C 173.238281 57.441406 173.039062 56.046875 173.199219 54.769531 C 173.15625 54.605469 173.167969 54.425781 173.253906 54.265625 C 173.425781 53.921875 173.828125 53.769531 174.175781 53.910156 C 174.199219 53.914062 174.21875 53.921875 174.242188 53.925781 C 175.40625 54.378906 176.574219 54.824219 177.738281 55.265625 C 177.867188 55.320312 178 55.367188 178.128906 55.414062 C 177.621094 54.898438 177.121094 54.378906 176.632812 53.847656 C 176.082031 53.265625 175.539062 52.671875 175.003906 52.074219 C 172.867188 49.675781 170.847656 47.183594 168.996094 44.671875 C 168.101562 43.457031 167.210938 42.136719 167.066406 40.585938 C 167.019531 40.117188 167.066406 39.621094 167.199219 39.148438 L 167.167969 39.125 C 166.859375 38.859375 166.824219 38.394531 167.089844 38.085938 C 167.355469 37.78125 167.820312 37.742188 168.128906 38.007812 L 168.53125 38.359375 C 168.535156 38.359375 168.535156 38.359375 168.535156 38.359375 C 172.363281 41.621094 176.6875 44.164062 180.804688 46.257812 C 180.074219 45.539062 179.339844 44.820312 178.605469 44.097656 L 175.824219 41.359375 C 173.714844 39.285156 171.539062 37.148438 170.121094 34.421875 C 167.894531 30.144531 167.976562 25.136719 168.359375 20.796875 C 168.359375 20.777344 168.359375 20.757812 168.367188 20.730469 C 168.367188 20.691406 168.375 20.652344 168.386719 20.609375 C 168.398438 20.558594 168.414062 20.515625 168.4375 20.464844 C 168.515625 20.304688 168.648438 20.1875 168.800781 20.121094 C 168.832031 20.109375 168.859375 20.097656 168.894531 20.089844 C 168.914062 20.085938 168.933594 20.078125 168.957031 20.074219 C 169 20.066406 169.050781 20.058594 169.09375 20.058594 C 169.113281 20.058594 169.140625 20.058594 169.160156 20.066406 C 169.203125 20.066406 169.246094 20.074219 169.289062 20.089844 C 169.335938 20.097656 169.382812 20.117188 169.425781 20.136719 C 170.175781 20.511719 170.820312 21.078125 171.363281 21.589844 C 174.027344 24.160156 176.328125 27.113281 178.550781 29.96875 C 179.613281 31.335938 180.710938 32.75 181.835938 34.097656 C 183.332031 35.894531 184.910156 37.625 186.554688 39.277344 C 187.167969 39.894531 187.792969 40.5 188.425781 41.089844 C 188.304688 40.46875 188.199219 39.835938 188.121094 39.1875 C 188.070312 38.8125 188.03125 38.429688 188.003906 38.046875 C 187.773438 35.289062 187.917969 32.292969 188.445312 28.871094 C 188.445312 28.863281 188.445312 28.859375 188.449219 28.855469 C 188.453125 28.816406 188.464844 28.773438 188.480469 28.738281 C 188.488281 28.703125 188.5 28.671875 188.515625 28.648438 C 188.527344 28.625 188.535156 28.605469 188.550781 28.582031 C 188.628906 28.460938 188.742188 28.363281 188.875 28.308594 C 188.925781 28.285156 188.972656 28.269531 189.023438 28.261719 C 189.074219 28.25 189.117188 28.246094 189.164062 28.246094 C 189.207031 28.246094 189.242188 28.25 189.285156 28.257812 C 189.289062 28.257812 189.292969 28.257812 189.296875 28.261719 C 189.335938 28.265625 189.375 28.273438 189.414062 28.289062 C 189.453125 28.300781 189.488281 28.3125 189.515625 28.335938 C 189.6875 28.421875 189.808594 28.570312 189.867188 28.742188 C 189.917969 28.871094 189.976562 28.996094 190.023438 29.125 C 190.371094 30.03125 190.710938 30.957031 191.042969 31.882812 C 192.125 34.871094 193.246094 37.96875 195.011719 40.609375 C 197.375 44.164062 200.824219 46.859375 204.164062 49.46875 C 209.328125 53.5 214.664062 57.667969 220.421875 61.015625 C 223.863281 63.015625 227.535156 64.765625 231.085938 66.460938 C 232.726562 67.242188 234.398438 68.039062 236.066406 68.871094 C 237.050781 69.363281 238.039062 69.863281 239.011719 70.386719 C 239.667969 70.730469 240.324219 71.089844 240.96875 71.453125 C 249.203125 76.101562 254.699219 81.308594 257.769531 87.378906 C 259.429688 90.660156 260.554688 94.558594 261.304688 99.648438 C 262.277344 106.277344 262.417969 112.976562 261.714844 119.644531 C 261.664062 120.136719 261.613281 120.625 261.550781 121.113281 C 261.480469 121.675781 261.40625 122.246094 261.320312 122.808594 C 261.753906 122.402344 262.207031 122.015625 262.671875 121.636719 C 263.054688 121.328125 263.445312 121.027344 263.847656 120.738281 C 271.953125 114.878906 282.796875 113.808594 291.847656 118.386719 C 295.285156 120.121094 298.351562 122.5625 300.75 125.460938 C 302.648438 125.589844 304.496094 126.105469 306.125 126.96875 C 306.210938 127.003906 306.285156 127.054688 306.355469 127.125 C 306.359375 127.125 306.371094 127.136719 306.375 127.140625 C 306.386719 127.15625 306.398438 127.164062 306.40625 127.179688 C 306.460938 127.238281 306.503906 127.308594 306.527344 127.378906 C 306.546875 127.425781 306.5625 127.46875 306.566406 127.511719 C 306.578125 127.558594 306.582031 127.605469 306.582031 127.652344 Z M 234.28125 88.285156 C 225.378906 88.59375 216.53125 92.6875 209.8125 98.390625 C 209.46875 98.679688 210.074219 98.949219 210.34375 98.738281 C 217.496094 93.132812 225.457031 90.269531 234.316406 88.722656 C 234.652344 88.664062 234.632812 88.269531 234.28125 88.285156 Z M 192.070312 175.957031 C 192.058594 175.960938 192.046875 175.972656 192.039062 175.976562 C 191.921875 176.050781 191.792969 176.074219 191.675781 176.050781 C 191.808594 176.015625 191.9375 175.988281 192.070312 175.957031 " fill-opacity="1" fill-rule="nonzero"/></g><g fill="#292621" fill-opacity="1"><g transform="translate(14.798815, 336.394284)"><g><path d="M 36.015625 7.890625 C 33.648438 7.890625 31.0625 7.375 28.25 6.34375 C 25.4375 5.320312 21.734375 3.75 17.140625 1.625 L 12.421875 -0.546875 C 9.222656 3.023438 5.867188 4.8125 2.359375 4.8125 C 0.546875 4.8125 -1.050781 4.382812 -2.4375 3.53125 C -3.832031 2.6875 -4.894531 1.644531 -5.625 0.40625 C -6.351562 -0.832031 -6.71875 -1.992188 -6.71875 -3.078125 C -6.71875 -4.285156 -6.1875 -5.253906 -5.125 -5.984375 C -4.0625 -6.710938 -2.382812 -7.078125 -0.09375 -7.078125 C 2.570312 -7.078125 6.289062 -6.441406 11.0625 -5.171875 C 12.570312 -7.828125 13.992188 -10.984375 15.328125 -14.640625 C 16.660156 -18.304688 18.296875 -23.222656 20.234375 -29.390625 L 22.40625 -36.28125 C 19.625 -37.1875 17.429688 -38.515625 15.828125 -40.265625 C 14.222656 -42.023438 13.421875 -43.929688 13.421875 -45.984375 C 13.421875 -47.734375 13.945312 -49.363281 15 -50.875 C 16.0625 -52.394531 17.410156 -53.15625 19.046875 -53.15625 C 18.617188 -52.601562 18.316406 -51.785156 18.140625 -50.703125 C 17.960938 -49.617188 17.875 -48.5625 17.875 -47.53125 C 17.875 -45.289062 18.34375 -43.382812 19.28125 -41.8125 C 20.21875 -40.238281 21.46875 -39.03125 23.03125 -38.1875 C 25.8125 -46.707031 28.710938 -53.359375 31.734375 -58.140625 C 34.765625 -62.921875 38.367188 -65.3125 42.546875 -65.3125 C 44.773438 -65.3125 46.796875 -64.582031 48.609375 -63.125 C 50.429688 -61.675781 51.34375 -59.316406 51.34375 -56.046875 C 51.34375 -53.023438 50.523438 -49.894531 48.890625 -46.65625 C 47.253906 -43.425781 44.785156 -40.707031 41.484375 -38.5 C 38.191406 -36.289062 34.21875 -35.1875 29.5625 -35.1875 L 28.125 -35.1875 C 25.644531 -27.695312 23.4375 -21.5 21.5 -16.59375 C 19.5625 -11.695312 17.414062 -7.492188 15.0625 -3.984375 C 15.539062 -3.804688 16.050781 -3.640625 16.59375 -3.484375 C 17.144531 -3.335938 17.691406 -3.175781 18.234375 -3 C 23.367188 -1.425781 27.476562 -0.265625 30.5625 0.484375 C 33.644531 1.242188 36.488281 1.625 39.09375 1.625 C 41.507812 1.625 43.65625 1.144531 45.53125 0.1875 C 44.5625 2.90625 43.289062 4.867188 41.71875 6.078125 C 40.144531 7.285156 38.242188 7.890625 36.015625 7.890625 Z M 28.65625 -36.921875 C 32.039062 -36.921875 35.09375 -38.160156 37.8125 -40.640625 C 40.539062 -43.117188 42.660156 -46.066406 44.171875 -49.484375 C 45.679688 -52.898438 46.4375 -55.90625 46.4375 -58.5 C 46.4375 -60.132812 46.132812 -61.296875 45.53125 -61.984375 C 44.925781 -62.679688 44.140625 -63.03125 43.171875 -63.03125 C 40.628906 -63.03125 38.300781 -60.867188 36.1875 -56.546875 C 34.070312 -52.222656 31.5625 -45.679688 28.65625 -36.921875 Z M 2 2.171875 C 4.539062 2.171875 6.867188 0.78125 8.984375 -2 C 4.503906 -3.8125 1.054688 -4.71875 -1.359375 -4.71875 C -3.359375 -4.71875 -4.359375 -4.144531 -4.359375 -3 C -4.359375 -1.84375 -3.738281 -0.691406 -2.5 0.453125 C -1.257812 1.597656 0.238281 2.171875 2 2.171875 Z M 2 2.171875 "/></g></g></g><g fill="#292621" fill-opacity="1"><g transform="translate(67.315994, 336.394284)"><g><path d="M 6.265625 2.90625 C 3.785156 2.90625 1.96875 2.148438 0.8125 0.640625 C -0.332031 -0.867188 -0.90625 -2.863281 -0.90625 -5.34375 C -0.90625 -7.820312 -0.394531 -10.421875 0.625 -13.140625 C 1.65625 -15.867188 2.988281 -18.140625 4.625 -19.953125 C 6.257812 -21.765625 7.894531 -22.671875 9.53125 -22.671875 C 10.070312 -22.671875 10.703125 -22.519531 11.421875 -22.21875 C 10.703125 -21.613281 9.828125 -20.28125 8.796875 -18.21875 C 7.765625 -16.164062 6.867188 -13.972656 6.109375 -11.640625 C 5.359375 -9.316406 4.984375 -7.429688 4.984375 -5.984375 C 4.984375 -2.535156 6.070312 -0.8125 8.25 -0.8125 C 9.519531 -0.8125 11.03125 -1.476562 12.78125 -2.8125 C 14.539062 -4.144531 16.265625 -5.898438 17.953125 -8.078125 C 16.265625 -9.460938 14.953125 -11.273438 14.015625 -13.515625 C 13.078125 -15.753906 12.609375 -18.082031 12.609375 -20.5 C 12.609375 -23.644531 13.410156 -26.332031 15.015625 -28.5625 C 16.617188 -30.800781 18.78125 -31.921875 21.5 -31.921875 C 23.789062 -31.921875 25.40625 -31.300781 26.34375 -30.0625 C 27.28125 -28.820312 27.75 -27.113281 27.75 -24.9375 C 27.75 -22.644531 27.191406 -20.0625 26.078125 -17.1875 C 24.960938 -14.3125 23.492188 -11.515625 21.671875 -8.796875 C 22.765625 -8.191406 23.914062 -7.890625 25.125 -7.890625 C 26.875 -7.890625 28.6875 -8.414062 30.5625 -9.46875 C 32.4375 -10.53125 33.859375 -12.179688 34.828125 -14.421875 L 35.921875 -13.515625 C 34.765625 -10.859375 33.128906 -8.894531 31.015625 -7.625 C 28.898438 -6.351562 26.722656 -5.71875 24.484375 -5.71875 C 22.859375 -5.71875 21.410156 -6.019531 20.140625 -6.625 C 17.960938 -3.78125 15.648438 -1.484375 13.203125 0.265625 C 10.753906 2.023438 8.441406 2.90625 6.265625 2.90625 Z M 19.59375 -10.4375 C 21.164062 -12.789062 22.4375 -15.191406 23.40625 -17.640625 C 24.375 -20.085938 24.859375 -22.34375 24.859375 -24.40625 C 24.859375 -26.09375 24.597656 -27.359375 24.078125 -28.203125 C 23.566406 -29.054688 22.914062 -29.484375 22.125 -29.484375 C 21.28125 -29.484375 20.421875 -29.070312 19.546875 -28.25 C 18.671875 -27.4375 17.945312 -26.316406 17.375 -24.890625 C 16.800781 -23.472656 16.515625 -21.921875 16.515625 -20.234375 C 16.515625 -18.359375 16.769531 -16.554688 17.28125 -14.828125 C 17.789062 -13.109375 18.5625 -11.644531 19.59375 -10.4375 Z M 36.65625 -42.53125 C 35.195312 -45.132812 32.804688 -48.34375 29.484375 -52.15625 C 29.722656 -53.84375 30.476562 -54.6875 31.75 -54.6875 C 32.65625 -54.6875 33.632812 -54.113281 34.6875 -52.96875 C 35.75 -51.820312 36.660156 -50.476562 37.421875 -48.9375 C 38.179688 -47.394531 38.5625 -46.171875 38.5625 -45.265625 C 38.5625 -43.929688 37.925781 -43.019531 36.65625 -42.53125 Z M 32.03125 -34.109375 C 31.238281 -35.679688 30.328125 -37.070312 29.296875 -38.28125 C 28.273438 -39.488281 26.945312 -40.878906 25.3125 -42.453125 C 23.257812 -41.722656 21.503906 -40.960938 20.046875 -40.171875 C 18.597656 -39.390625 17.238281 -38.425781 15.96875 -37.28125 C 15.363281 -37.644531 15.0625 -38.21875 15.0625 -39 C 15.0625 -40.09375 15.726562 -41.257812 17.0625 -42.5 C 18.394531 -43.738281 19.90625 -44.796875 21.59375 -45.671875 C 23.289062 -46.546875 24.5625 -46.984375 25.40625 -46.984375 C 26.375 -46.984375 27.503906 -46.40625 28.796875 -45.25 C 30.097656 -44.101562 31.21875 -42.742188 32.15625 -41.171875 C 33.09375 -39.597656 33.5625 -38.179688 33.5625 -36.921875 C 33.5625 -35.585938 33.050781 -34.648438 32.03125 -34.109375 Z M 32.03125 -34.109375 "/></g></g></g><g fill="#292621" fill-opacity="1"><g transform="translate(101.239021, 336.394284)"><g><path d="M 29.296875 1.8125 C 27.242188 1.8125 25.671875 1.28125 24.578125 0.21875 C 23.492188 -0.832031 22.953125 -2.234375 22.953125 -3.984375 C 22.953125 -4.773438 23.085938 -5.695312 23.359375 -6.75 C 23.628906 -7.8125 23.914062 -8.859375 24.21875 -9.890625 C 24.582031 -10.972656 24.898438 -12.117188 25.171875 -13.328125 C 25.441406 -14.535156 25.578125 -15.625 25.578125 -16.59375 C 25.578125 -19.5625 24.367188 -21.046875 21.953125 -21.046875 C 19.648438 -21.046875 17.242188 -19.832031 14.734375 -17.40625 C 12.222656 -14.988281 9.984375 -12.296875 8.015625 -9.328125 C 6.054688 -6.367188 3.835938 -2.804688 1.359375 1.359375 C 0.328125 1.359375 -0.609375 1.191406 -1.453125 0.859375 C -2.296875 0.523438 -2.960938 0.0234375 -3.453125 -0.640625 C -3.453125 -0.941406 -3.054688 -2.03125 -2.265625 -3.90625 C -0.753906 -7.769531 0.484375 -11.289062 1.453125 -14.46875 C 2.421875 -17.644531 2.9375 -20.472656 3 -22.953125 C 3.414062 -23.429688 4.015625 -23.867188 4.796875 -24.265625 C 5.585938 -24.660156 6.378906 -24.859375 7.171875 -24.859375 C 8.796875 -24.859375 9.609375 -24.070312 9.609375 -22.5 C 9.609375 -21.59375 9.335938 -20.003906 8.796875 -17.734375 C 8.253906 -15.460938 7.5625 -13.054688 6.71875 -10.515625 C 9.613281 -14.992188 12.691406 -18.773438 15.953125 -21.859375 C 19.222656 -24.941406 22.429688 -26.484375 25.578125 -26.484375 C 27.816406 -26.484375 29.492188 -25.679688 30.609375 -24.078125 C 31.734375 -22.472656 32.296875 -20.554688 32.296875 -18.328125 C 32.296875 -16.992188 32.128906 -15.722656 31.796875 -14.515625 C 31.460938 -13.304688 30.960938 -11.914062 30.296875 -10.34375 C 29.753906 -9.007812 29.332031 -7.859375 29.03125 -6.890625 C 28.726562 -5.921875 28.578125 -4.953125 28.578125 -3.984375 C 28.578125 -1.691406 29.484375 -0.546875 31.296875 -0.546875 C 33.347656 -0.546875 35.476562 -1.90625 37.6875 -4.625 C 39.894531 -7.34375 41.992188 -10.695312 43.984375 -14.6875 L 44.984375 -13.515625 C 40.628906 -3.296875 35.398438 1.8125 29.296875 1.8125 Z M 29.296875 1.8125 "/></g></g></g><g fill="#292621" fill-opacity="1"><g transform="translate(144.323082, 336.394284)"><g><path d="M 3.453125 25.390625 C 1.992188 25.390625 0.753906 24.953125 -0.265625 24.078125 C -1.296875 23.203125 -1.8125 21.890625 -1.8125 20.140625 C -1.8125 17.898438 -0.9375 15.828125 0.8125 13.921875 C 2.570312 12.015625 4.582031 10.378906 6.84375 9.015625 C 9.113281 7.660156 12.125 6.046875 15.875 4.171875 C 17.5625 -0.179688 19.101562 -5.171875 20.5 -10.796875 C 15.113281 -3.054688 10.1875 0.8125 5.71875 0.8125 C 3.601562 0.8125 1.9375 0.015625 0.71875 -1.578125 C -0.488281 -3.179688 -1.09375 -5.316406 -1.09375 -7.984375 C -1.09375 -11.972656 0.191406 -15.78125 2.765625 -19.40625 C 5.335938 -23.039062 8.507812 -25.957031 12.28125 -28.15625 C 16.0625 -30.363281 19.617188 -31.46875 22.953125 -31.46875 C 24.578125 -31.46875 25.796875 -31.195312 26.609375 -30.65625 C 27.429688 -30.113281 27.84375 -29.421875 27.84375 -28.578125 C 27.84375 -28.085938 27.707031 -27.675781 27.4375 -27.34375 C 27.164062 -27.007812 26.9375 -26.8125 26.75 -26.75 C 26.144531 -27.664062 24.9375 -28.125 23.125 -28.125 C 20.101562 -28.125 17.1875 -26.972656 14.375 -24.671875 C 11.5625 -22.367188 9.273438 -19.582031 7.515625 -16.3125 C 5.765625 -13.050781 4.890625 -10.125 4.890625 -7.53125 C 4.890625 -6.070312 5.175781 -4.960938 5.75 -4.203125 C 6.332031 -3.453125 7.109375 -3.078125 8.078125 -3.078125 C 9.703125 -3.078125 11.738281 -4.195312 14.1875 -6.4375 C 16.644531 -8.675781 19.082031 -11.550781 21.5 -15.0625 L 22.578125 -19.859375 C 22.828125 -21.015625 23.328125 -22.070312 24.078125 -23.03125 C 24.835938 -24 25.878906 -24.484375 27.203125 -24.484375 C 27.753906 -24.484375 28.390625 -24.394531 29.109375 -24.21875 C 29.109375 -22.582031 28.441406 -19.300781 27.109375 -14.375 C 25.785156 -9.445312 24.125 -4.441406 22.125 0.640625 C 25.269531 -0.867188 28.1875 -2.96875 30.875 -5.65625 C 33.570312 -8.351562 35.585938 -11.363281 36.921875 -14.6875 L 38.09375 -13.78125 C 36.820312 -10.09375 34.535156 -6.738281 31.234375 -3.71875 C 27.941406 -0.695312 24.578125 1.628906 21.140625 3.265625 C 18.296875 10.160156 15.421875 15.570312 12.515625 19.5 C 9.609375 23.425781 6.585938 25.390625 3.453125 25.390625 Z M 3.171875 22.5 C 4.566406 22.5 6.304688 21.179688 8.390625 18.546875 C 10.472656 15.921875 12.632812 11.945312 14.875 6.625 C 10.457031 8.863281 7.039062 10.945312 4.625 12.875 C 2.207031 14.8125 1 16.957031 1 19.3125 C 1 20.28125 1.191406 21.050781 1.578125 21.625 C 1.972656 22.207031 2.503906 22.5 3.171875 22.5 Z M 3.171875 22.5 "/></g></g></g><g fill="#292621" fill-opacity="1"><g transform="translate(180.422998, 336.394284)"><g/></g></g><g fill="#292621" fill-opacity="1"><g transform="translate(204.8222, 336.394284)"><g><path d="M 9.703125 5.078125 C 6.679688 5.078125 4.234375 4.078125 2.359375 2.078125 C 0.484375 0.0859375 -0.453125 -2.78125 -0.453125 -6.53125 C -0.453125 -10.457031 0.539062 -14.296875 2.53125 -18.046875 C 4.53125 -21.796875 7.085938 -24.832031 10.203125 -27.15625 C 13.316406 -29.488281 16.382812 -30.65625 19.40625 -30.65625 C 21.707031 -30.65625 23.351562 -30.003906 24.34375 -28.703125 C 25.34375 -27.398438 25.84375 -25.816406 25.84375 -23.953125 C 25.84375 -22.128906 25.4375 -20.566406 24.625 -19.265625 C 23.8125 -17.972656 22.707031 -17.328125 21.3125 -17.328125 C 20.28125 -17.328125 19.40625 -17.78125 18.6875 -18.6875 C 19.59375 -19.101562 20.378906 -20.050781 21.046875 -21.53125 C 21.710938 -23.019531 22.046875 -24.457031 22.046875 -25.84375 C 22.046875 -26.632812 21.894531 -27.210938 21.59375 -27.578125 C 21.289062 -27.941406 20.773438 -28.125 20.046875 -28.125 C 17.992188 -28.125 15.800781 -26.894531 13.46875 -24.4375 C 11.144531 -21.988281 9.179688 -19.007812 7.578125 -15.5 C 5.972656 -12 5.171875 -8.796875 5.171875 -5.890625 C 5.171875 -3.710938 5.679688 -1.914062 6.703125 -0.5 C 7.734375 0.914062 9.429688 1.625 11.796875 1.625 C 15.484375 1.625 19.125 0.113281 22.71875 -2.90625 C 26.320312 -5.925781 29.085938 -9.882812 31.015625 -14.78125 L 32.203125 -13.875 C 30.804688 -10.25 28.898438 -7 26.484375 -4.125 C 24.066406 -1.25 21.390625 1 18.453125 2.625 C 15.523438 4.257812 12.609375 5.078125 9.703125 5.078125 Z M 9.703125 5.078125 "/></g></g></g><g fill="#292621" fill-opacity="1"><g transform="translate(234.935701, 336.394284)"><g><path d="M 4.265625 3.453125 C 3.171875 3.453125 2.273438 2.515625 1.578125 0.640625 C 0.890625 -1.234375 0.546875 -3.441406 0.546875 -5.984375 C 0.546875 -11.546875 2.253906 -19.039062 5.671875 -28.46875 C 9.085938 -37.90625 12.972656 -46.3125 17.328125 -53.6875 C 21.679688 -61.070312 25.128906 -64.765625 27.671875 -64.765625 C 28.628906 -64.765625 29.363281 -64.171875 29.875 -62.984375 C 30.394531 -61.804688 30.65625 -60.492188 30.65625 -59.046875 C 30.65625 -56.203125 29.640625 -52.421875 27.609375 -47.703125 C 25.585938 -42.992188 22.957031 -38.460938 19.71875 -34.109375 C 16.488281 -29.753906 13.179688 -26.546875 9.796875 -24.484375 C 8.703125 -21.953125 7.867188 -19.003906 7.296875 -15.640625 C 6.722656 -12.285156 6.4375 -9.28125 6.4375 -6.625 C 6.4375 -5.65625 6.5 -4.625 6.625 -3.53125 C 9.039062 -10.550781 11.773438 -16.222656 14.828125 -20.546875 C 17.878906 -24.867188 21.28125 -27.03125 25.03125 -27.03125 C 27.332031 -27.03125 29.054688 -26.226562 30.203125 -24.625 C 31.347656 -23.019531 31.921875 -21.097656 31.921875 -18.859375 C 31.921875 -17.535156 31.753906 -16.269531 31.421875 -15.0625 C 31.097656 -13.851562 30.570312 -12.28125 29.84375 -10.34375 C 29.238281 -8.707031 28.785156 -7.40625 28.484375 -6.4375 C 28.179688 -5.46875 28.03125 -4.53125 28.03125 -3.625 C 28.03125 -2.476562 28.269531 -1.617188 28.75 -1.046875 C 29.238281 -0.472656 29.90625 -0.1875 30.75 -0.1875 C 32.800781 -0.1875 35.21875 -1.617188 38 -4.484375 C 40.78125 -7.359375 43.078125 -10.757812 44.890625 -14.6875 L 46.078125 -13.609375 C 44.078125 -9.015625 41.519531 -5.234375 38.40625 -2.265625 C 35.289062 0.691406 32.039062 2.171875 28.65625 2.171875 C 26.664062 2.171875 25.125 1.640625 24.03125 0.578125 C 22.945312 -0.472656 22.40625 -1.84375 22.40625 -3.53125 C 22.40625 -4.863281 22.859375 -7.015625 23.765625 -9.984375 C 24.734375 -13.242188 25.21875 -15.660156 25.21875 -17.234375 C 25.21875 -18.742188 24.898438 -19.847656 24.265625 -20.546875 C 23.628906 -21.242188 22.796875 -21.59375 21.765625 -21.59375 C 19.523438 -21.59375 17.570312 -20.273438 15.90625 -17.640625 C 14.25 -15.015625 12.453125 -11.3125 10.515625 -6.53125 C 9.066406 -3.019531 7.921875 -0.476562 7.078125 1.09375 C 6.234375 2.664062 5.296875 3.453125 4.265625 3.453125 Z M 10.96875 -28.03125 C 13.570312 -30.082031 16.15625 -33.054688 18.71875 -36.953125 C 21.289062 -40.859375 23.410156 -44.726562 25.078125 -48.5625 C 26.742188 -52.40625 27.578125 -55.113281 27.578125 -56.6875 C 27.578125 -57.175781 27.453125 -57.421875 27.203125 -57.421875 C 26.546875 -57.421875 25.171875 -55.921875 23.078125 -52.921875 C 20.992188 -49.929688 18.800781 -46.164062 16.5 -41.625 C 14.207031 -37.09375 12.363281 -32.5625 10.96875 -28.03125 Z M 10.96875 -28.03125 "/></g></g></g><g fill="#292621" fill-opacity="1"><g transform="translate(278.926787, 336.394284)"><g><path d="M 17.421875 -39.1875 C 16.328125 -39.1875 15.429688 -39.441406 14.734375 -39.953125 C 14.046875 -40.460938 13.703125 -41.203125 13.703125 -42.171875 C 13.703125 -43.378906 14.425781 -44.46875 15.875 -45.4375 C 17.320312 -46.40625 18.800781 -46.890625 20.3125 -46.890625 C 22.3125 -46.890625 23.3125 -45.953125 23.3125 -44.078125 C 23.3125 -42.929688 22.691406 -41.828125 21.453125 -40.765625 C 20.210938 -39.710938 18.867188 -39.1875 17.421875 -39.1875 Z M 6.53125 2.359375 C 4.289062 2.359375 2.566406 1.644531 1.359375 0.21875 C 0.148438 -1.195312 -0.453125 -3.023438 -0.453125 -5.265625 C -0.453125 -7.617188 0.222656 -10.878906 1.578125 -15.046875 C 2.941406 -19.222656 4.632812 -22.882812 6.65625 -26.03125 C 8.6875 -29.175781 10.671875 -30.75 12.609375 -30.75 C 13.148438 -30.75 13.617188 -30.566406 14.015625 -30.203125 C 14.410156 -29.835938 14.609375 -29.351562 14.609375 -28.75 C 14.609375 -27.90625 13.640625 -25.878906 11.703125 -22.671875 C 9.703125 -19.347656 8.113281 -16.367188 6.9375 -13.734375 C 5.757812 -11.109375 5.171875 -8.617188 5.171875 -6.265625 C 5.171875 -4.140625 5.515625 -2.695312 6.203125 -1.9375 C 6.898438 -1.1875 8.035156 -0.8125 9.609375 -0.8125 C 14.328125 -0.8125 18.984375 -5.4375 23.578125 -14.6875 L 24.40625 -13.78125 C 22.707031 -8.707031 20.207031 -4.75 16.90625 -1.90625 C 13.613281 0.9375 10.15625 2.359375 6.53125 2.359375 Z M 6.53125 2.359375 "/></g></g></g><g fill="#292621" fill-opacity="1"><g transform="translate(301.602636, 336.394284)"><g><path d="M 45.71875 2.8125 C 43.71875 2.8125 42.203125 2.191406 41.171875 0.953125 C 40.148438 -0.285156 39.640625 -1.875 39.640625 -3.8125 C 39.640625 -5.445312 40.125 -7.832031 41.09375 -10.96875 C 41.394531 -12 41.679688 -13.023438 41.953125 -14.046875 C 42.222656 -15.078125 42.359375 -15.957031 42.359375 -16.6875 C 42.359375 -17.78125 42.097656 -18.597656 41.578125 -19.140625 C 41.066406 -19.679688 40.453125 -19.953125 39.734375 -19.953125 C 38.335938 -19.953125 36.835938 -18.96875 35.234375 -17 C 33.628906 -15.039062 31.164062 -11.519531 27.84375 -6.4375 C 27 -5.101562 25.820312 -2.867188 24.3125 0.265625 L 23.484375 2 C 22.523438 2 21.515625 1.832031 20.453125 1.5 C 19.390625 1.164062 18.859375 0.726562 18.859375 0.1875 C 18.859375 -0.238281 19.375 -1.84375 20.40625 -4.625 C 21.675781 -8.375 22.6875 -11.53125 23.4375 -14.09375 C 24.195312 -16.664062 24.578125 -18.863281 24.578125 -20.6875 C 24.578125 -22.976562 23.820312 -24.125 22.3125 -24.125 C 20.613281 -24.125 18.421875 -22.765625 15.734375 -20.046875 C 13.046875 -17.328125 10.398438 -13.894531 7.796875 -9.75 C 5.203125 -5.601562 3.175781 -1.535156 1.71875 2.453125 C 0.8125 2.453125 -0.226562 2.238281 -1.40625 1.8125 C -2.582031 1.382812 -3.171875 0.960938 -3.171875 0.546875 C -3.171875 0.359375 -2.75 -1.0625 -1.90625 -3.71875 C -0.507812 -7.769531 0.65625 -11.488281 1.59375 -14.875 C 2.53125 -18.257812 3.023438 -21.191406 3.078125 -23.671875 C 3.503906 -24.160156 4.109375 -24.597656 4.890625 -24.984375 C 5.679688 -25.378906 6.46875 -25.578125 7.25 -25.578125 C 8.882812 -25.578125 9.703125 -24.789062 9.703125 -23.21875 C 9.703125 -21.582031 8.914062 -18.132812 7.34375 -12.875 C 10.3125 -17.59375 13.503906 -21.644531 16.921875 -25.03125 C 20.335938 -28.414062 23.523438 -30.109375 26.484375 -30.109375 C 28.234375 -30.109375 29.488281 -29.472656 30.25 -28.203125 C 31.007812 -26.929688 31.390625 -25.269531 31.390625 -23.21875 C 31.390625 -21.164062 31.082031 -18.925781 30.46875 -16.5 C 29.863281 -14.082031 29.234375 -12.0625 28.578125 -10.4375 C 30.867188 -14.601562 33.253906 -17.972656 35.734375 -20.546875 C 38.210938 -23.117188 40.84375 -24.40625 43.625 -24.40625 C 45.4375 -24.40625 46.75 -23.859375 47.5625 -22.765625 C 48.382812 -21.679688 48.796875 -20.289062 48.796875 -18.59375 C 48.796875 -17.445312 48.644531 -16.222656 48.34375 -14.921875 C 48.039062 -13.617188 47.585938 -12.03125 46.984375 -10.15625 C 45.953125 -6.945312 45.4375 -4.710938 45.4375 -3.453125 C 45.4375 -1.390625 46.34375 -0.359375 48.15625 -0.359375 C 50.394531 -0.359375 52.507812 -1.734375 54.5 -4.484375 C 56.5 -7.234375 58.4375 -10.632812 60.3125 -14.6875 L 61.40625 -13.421875 C 59.707031 -8.953125 57.5 -5.128906 54.78125 -1.953125 C 52.0625 1.222656 49.039062 2.8125 45.71875 2.8125 Z M 45.71875 2.8125 "/></g></g></g></svg>