<svg xmlns="http://www.w3.org/2000/svg" xmlns:xlink="http://www.w3.org/1999/xlink" width="500" zoomAndPan="magnify" viewBox="0 0 375 374.999991" height="500" preserveAspectRatio="xMidYMid meet" version="1.0"><defs><g/><clipPath id="643a1cf634"><path d="M 8 60.691406 L 97 60.691406 L 97 273.691406 L 8 273.691406 Z M 8 60.691406 " clip-rule="nonzero"/></clipPath></defs><g fill="#000000" fill-opacity="1"><g transform="translate(69.139754, 250.278982)"><g><path d="M 34.808594 -11.484375 C 30.449219 -4.652344 27.621094 -0.941406 19.496094 -0.941406 L 11.367188 -0.941406 L 11.367188 -37.871094 C 11.367188 -39.992188 13.429688 -40.636719 16.433594 -40.933594 L 16.433594 -41.226562 L 0.882812 -41.226562 L 0.882812 -40.933594 C 3.296875 -40.636719 5.359375 -39.992188 5.359375 -37.871094 L 5.359375 -4.535156 C 5.359375 -2.414062 3.296875 -1.179688 0.882812 -0.292969 L 0.882812 0 L 29.800781 0 L 31.804688 1.296875 L 32.15625 0 L 35.042969 -11.367188 Z M 34.808594 -11.484375 "/></g></g></g><g fill="#000000" fill-opacity="1"><g transform="translate(107.185142, 250.278982)"><g><path d="M 17.609375 -43.699219 L 6.007812 -33.863281 L 6.007812 -33.511719 L 17.609375 -40.816406 L 29.210938 -33.511719 L 29.210938 -33.863281 Z M 17.609375 -28.917969 C 8.65625 -28.917969 2.355469 -22.910156 2.355469 -14.253906 C 2.355469 -5.535156 8.65625 0.414062 17.609375 0.414062 C 26.5625 0.414062 32.863281 -5.59375 32.863281 -14.253906 C 32.863281 -22.96875 26.5625 -28.917969 17.609375 -28.917969 Z M 19.90625 -0.589844 C 12.605469 -0.589844 7.890625 -9.953125 7.890625 -18.082031 C 7.890625 -24.207031 10.660156 -27.917969 15.3125 -27.917969 C 22.617188 -27.917969 27.328125 -18.550781 27.328125 -10.425781 C 27.328125 -4.300781 24.558594 -0.589844 19.90625 -0.589844 Z M 19.90625 -0.589844 "/></g></g></g><g fill="#000000" fill-opacity="1"><g transform="translate(128.328784, 237.616361)"><g><path d="M -0.765625 -32.628906 L -0.589844 -32.804688 L -13.429688 -43.699219 L -15.726562 -40.636719 Z M -0.765625 -32.628906 "/></g></g></g><g fill="#000000" fill-opacity="1"><g transform="translate(144.523809, 250.278982)"><g><path d="M 25.207031 0 L 33.277344 0 C 31.507812 -1.179688 30.980469 -2.296875 30.980469 -5.476562 L 30.980469 -18.199219 C 30.980469 -27.09375 26.386719 -28.917969 22.558594 -28.917969 C 17.316406 -28.917969 12.78125 -25.5 9.601562 -23.382812 L 9.601562 -24.5 L 9.894531 -28.859375 L 0.589844 -27.976562 L 0.589844 -27.738281 C 1.824219 -27.621094 3.355469 -27.210938 4.179688 -26.679688 L 4.179688 -4.0625 L 3.828125 0 L 11.898438 0 C 10.128906 -1.179688 9.601562 -2.296875 9.601562 -5.476562 L 9.601562 -22.085938 C 12.605469 -24.089844 15.429688 -26.386719 19.199219 -26.386719 C 22.261719 -26.386719 25.5625 -24.796875 25.5625 -18.082031 L 25.5625 -4.0625 Z M 25.207031 0 "/></g></g></g><g fill="#000000" fill-opacity="1"><g transform="translate(181.685784, 250.278982)"><g><path d="M 20.613281 -28.917969 C 8.363281 -28.917969 2.355469 -21.613281 2.355469 -13.132812 C 2.355469 -4.59375 8.363281 0.414062 16.550781 0.414062 C 20.082031 0.414062 22.96875 -0.53125 24.972656 -2.0625 L 24.972656 3.003906 C 24.972656 6.832031 22.203125 10.308594 18.375 10.308594 C 16.667969 10.308594 12.957031 10.070312 10.542969 5.125 L 4.945312 6.773438 C 7.363281 11.132812 11.601562 12.308594 14.195312 12.308594 C 20.140625 12.308594 30.390625 5.949219 30.390625 3.0625 L 30.390625 -26.738281 C 27.445312 -28.210938 24.382812 -28.917969 20.613281 -28.917969 Z M 19.964844 -1.296875 C 13.191406 -1.296875 8.070312 -7.890625 8.070312 -16.3125 C 8.070312 -23.265625 11.601562 -27.800781 17.667969 -27.800781 C 20.90625 -27.800781 23.203125 -26.445312 24.972656 -24.558594 L 24.972656 -3.535156 C 23.851562 -2.121094 22.378906 -1.296875 19.964844 -1.296875 Z M 19.964844 -1.296875 "/></g></g></g><g fill="#000000" fill-opacity="1"><g transform="translate(217.434323, 250.278982)"><g/></g></g><g fill="#000000" fill-opacity="1"><g transform="translate(231.333417, 250.278982)"><g><path d="M 17.492188 0.414062 C 23.265625 0.414062 27.09375 -2.121094 28.859375 -5.300781 L 28.566406 -5.535156 C 26.738281 -3.121094 22.792969 -2.179688 19.964844 -2.179688 C 12.78125 -2.179688 8.070312 -8.421875 8.070312 -16.550781 C 8.070312 -23.675781 11.660156 -27.917969 16.960938 -27.917969 C 22.734375 -27.976562 25.796875 -23.027344 23.324219 -16.726562 L 23.441406 -16.726562 L 28.917969 -24.972656 C 27.09375 -27.210938 23.5 -28.917969 18.730469 -28.917969 C 9.953125 -28.917969 2.355469 -23.085938 2.355469 -13.664062 C 2.355469 -4.710938 9.304688 0.414062 17.492188 0.414062 Z M 17.492188 0.414062 "/></g></g></g><g fill="#000000" fill-opacity="1"><g transform="translate(264.431763, 250.278982)"><g><path d="M 25.207031 0 L 33.277344 0 C 31.507812 -1.179688 30.980469 -2.296875 30.980469 -5.476562 L 30.980469 -18.199219 C 30.980469 -27.09375 26.386719 -28.917969 22.558594 -28.917969 C 17.316406 -28.917969 12.78125 -25.5 9.601562 -23.382812 L 9.601562 -42.757812 L 9.894531 -45.054688 L -0.589844 -40.109375 L -0.589844 -39.753906 C 3.0625 -40.875 4.179688 -41.167969 4.179688 -38.8125 L 4.179688 -3.652344 L 3.652344 0 L 12.957031 0 L 12.957031 -0.234375 C 10.011719 -0.882812 9.601562 -2.53125 9.601562 -5.714844 L 9.601562 -22.085938 C 12.605469 -24.089844 15.429688 -26.386719 19.199219 -26.386719 C 22.261719 -26.386719 25.5625 -24.796875 25.5625 -18.082031 L 25.5625 -4.0625 Z M 25.207031 0 "/></g></g></g><g fill="#000000" fill-opacity="1"><g transform="translate(301.593731, 250.278982)"><g><path d="M 6.539062 -34.984375 C 8.421875 -34.984375 9.894531 -36.457031 9.894531 -38.398438 C 9.894531 -40.285156 8.421875 -41.757812 6.539062 -41.757812 C 4.59375 -41.757812 3.121094 -40.285156 3.121094 -38.398438 C 3.121094 -36.457031 4.59375 -34.984375 6.539062 -34.984375 Z M 3.828125 0 L 11.898438 0 C 10.128906 -1.179688 9.601562 -2.296875 9.601562 -5.476562 L 9.601562 -24.5 L 9.894531 -28.859375 L 0.589844 -27.976562 L 0.589844 -27.738281 C 1.824219 -27.621094 3.355469 -27.210938 4.179688 -26.679688 L 4.179688 -4.0625 Z M 3.828125 0 "/></g></g></g><g fill="#000000" fill-opacity="1"><g transform="translate(317.377401, 250.278982)"><g><path d="M 43.054688 0 L 51.121094 0 C 49.355469 -1.179688 48.824219 -2.296875 48.824219 -5.476562 L 48.824219 -18.199219 C 48.824219 -27.09375 44.523438 -28.917969 40.992188 -28.917969 C 36.042969 -28.917969 31.863281 -25.382812 28.683594 -23.027344 L 28.683594 -22.96875 C 27.445312 -27.800781 24.148438 -28.917969 21.378906 -28.917969 C 16.726562 -28.917969 12.722656 -25.738281 9.601562 -23.441406 L 9.601562 -24.5 L 9.894531 -28.859375 L 0.589844 -27.976562 L 0.589844 -27.738281 C 1.824219 -27.621094 3.355469 -27.210938 4.179688 -26.679688 L 4.179688 -4.0625 L 3.828125 0 L 11.898438 0 C 10.128906 -1.179688 9.601562 -2.296875 9.601562 -5.476562 L 9.601562 -22.144531 C 12.542969 -24.324219 15.019531 -26.386719 18.140625 -26.386719 C 20.847656 -26.386719 23.792969 -24.796875 23.792969 -18.082031 L 23.792969 -4.0625 L 23.441406 0 L 31.507812 0 C 29.742188 -1.179688 29.210938 -2.296875 29.210938 -5.476562 L 29.210938 -18.199219 C 29.210938 -19.613281 29.09375 -20.847656 28.917969 -21.910156 C 31.980469 -24.207031 34.511719 -26.386719 37.753906 -26.386719 C 40.460938 -26.386719 43.40625 -24.796875 43.40625 -18.082031 L 43.40625 -4.0625 Z M 43.054688 0 "/></g></g></g><path fill="#000000" d="M 121.339844 89.535156 C 121.339844 90.957031 120.1875 92.105469 118.765625 92.105469 C 117.34375 92.105469 116.191406 90.957031 116.191406 89.535156 C 116.191406 88.117188 117.34375 86.964844 118.765625 86.964844 C 120.1875 86.964844 121.339844 88.117188 121.339844 89.535156 " fill-opacity="1" fill-rule="nonzero"/><path fill="#000000" d="M 148.394531 82.199219 C 142.460938 81.757812 137 79.472656 130.253906 77.5 C 118.160156 73.96875 105.0625 77.671875 96.738281 91.058594 C 93.640625 96.042969 92.65625 101.671875 91.910156 107.363281 C 94.277344 109.789062 96.320312 112.316406 98.066406 114.859375 C 98.554688 108.191406 98.878906 101.742188 102.394531 95.199219 C 110.574219 79.992188 127.109375 80.386719 136.671875 85.855469 C 138.140625 86.695312 137.449219 87.734375 136.761719 88.378906 C 136.5 88.574219 136.238281 88.773438 135.972656 88.984375 C 130.667969 93.222656 124.09375 101.300781 120.714844 117.953125 C 118.691406 127.90625 119.375 140.199219 117.804688 154.25 C 114.777344 181.386719 86.332031 183.003906 66.070312 186.375 C 88.945312 190.078125 112.847656 184.230469 120.367188 168.238281 C 128.675781 150.570312 123.882812 144.222656 126.796875 122.335938 C 129.082031 105.136719 132.921875 96.898438 146.320312 89.035156 C 166.75 77.046875 197.757812 77.769531 197.757812 77.769531 C 197.757812 77.769531 172.050781 72.742188 148.394531 82.199219 " fill-opacity="1" fill-rule="nonzero"/><g clip-path="url(#643a1cf634)"><path fill="#000000" d="M 39.351562 99.8125 C 49.207031 105.875 56.039062 108.21875 69.792969 114.484375 C 92.050781 124.625 96.601562 145.664062 96.601562 145.664062 C 96.601562 145.664062 95.988281 124.238281 77.710938 110.878906 C 65.066406 101.640625 57.527344 102.292969 41.777344 91.863281 C 21.105469 78.171875 10.242188 60.679688 10.242188 60.679688 C 10.242188 60.679688 0.195312 114.289062 26.511719 142.589844 C 36.835938 153.691406 50.675781 159.339844 56.589844 161.371094 C 42.203125 177.773438 37.117188 201.171875 39.03125 222.527344 C 40.695312 241.089844 47.824219 259.191406 59.570312 273.699219 C 52.152344 255.988281 45.839844 238.941406 45.96875 219.738281 C 46.128906 195.3125 50.828125 176.699219 69.171875 160.667969 C 72.753906 157.535156 79.511719 151.949219 84.507812 147.007812 C 84.003906 145.421875 82.890625 142.503906 80.75 139.15625 C 79.238281 141.105469 77.585938 142.929688 75.753906 144.5625 C 70.652344 149.113281 64.949219 152.980469 60.027344 157.734375 C 59.011719 158.71875 58.035156 159.738281 57.097656 160.78125 C 51.777344 157.277344 38.617188 147.777344 29.121094 134.042969 C 11.542969 108.617188 15.980469 79.554688 15.980469 79.554688 C 15.980469 79.554688 24.648438 90.773438 39.351562 99.8125 " fill-opacity="1" fill-rule="nonzero"/></g></svg>